<svg width="1699" height="1699" viewBox="0 0 1699 1699" fill="none" xmlns="http://www.w3.org/2000/svg">
<circle cx="849.456" cy="848.567" r="312" transform="rotate(-27.2553 849.456 848.567)" stroke="#F8F8F8" stroke-width="2"/>
<circle cx="572.322" cy="991.894" r="2.67792" transform="rotate(-27.2553 572.322 991.894)" fill="#C2C2C2"/>
<circle cx="583.347" cy="1011.89" r="2.67792" transform="rotate(-27.2553 583.347 1011.89)" fill="#C2C2C2"/>
<circle r="2.67792" transform="matrix(0.888975 0.457955 0.457955 -0.888975 572.607 704.607)" fill="#C2C2C2"/>
<circle r="2.67792" transform="matrix(0.888975 0.457955 0.457955 -0.888975 583.632 684.607)" fill="#C2C2C2"/>
<circle cx="1125.63" cy="704.393" r="2.67792" transform="rotate(152.745 1125.63 704.393)" fill="#C2C2C2"/>
<circle cx="1114.61" cy="684.393" r="2.67792" transform="rotate(152.745 1114.61 684.393)" fill="#C2C2C2"/>
<circle cx="1126.35" cy="991.894" r="2.67792" transform="rotate(-27.2553 1126.35 991.894)" fill="#C2C2C2"/>
<circle cx="1115.35" cy="1011.89" r="2.67792" transform="rotate(-27.2553 1115.35 1011.89)" fill="#C2C2C2"/>
<circle cx="849.24" cy="849.24" r="474.5" transform="rotate(-109.391 849.24 849.24)" stroke="#F8F8F8" stroke-width="2"/>
<circle cx="1157.35" cy="1209.89" r="2.67792" transform="rotate(-27.2553 1157.35 1209.89)" fill="#C2C2C2"/>
<circle cx="1126.35" cy="1234.89" r="2.67792" transform="rotate(-27.2553 1126.35 1234.89)" fill="#C2C2C2"/>
<circle cx="572.347" cy="1234.89" r="2.67792" transform="rotate(-27.2553 572.347 1234.89)" fill="#C2C2C2"/>
<circle cx="541.347" cy="1210.35" r="2.67792" transform="rotate(-27.2553 541.347 1210.35)" fill="#C2C2C2"/>
<circle r="2.67792" transform="matrix(0.888975 0.457955 0.457955 -0.888975 572.607 463.607)" fill="#C2C2C2"/>
<circle r="2.67792" transform="matrix(0.888975 0.457955 0.457955 -0.888975 541.607 488.153)" fill="#C2C2C2"/>
<circle cx="1125.61" cy="463.607" r="2.67792" transform="rotate(152.745 1125.61 463.607)" fill="#C2C2C2"/>
<circle cx="1156.61" cy="488.153" r="2.67792" transform="rotate(152.745 1156.61 488.153)" fill="#C2C2C2"/>
<circle cx="849.24" cy="849.239" r="629.5" transform="rotate(-27.2553 849.24 849.239)" stroke="#F8F8F8" stroke-width="2"/>
<circle cx="1404.35" cy="1145.89" r="2.67792" transform="rotate(-27.2553 1404.35 1145.89)" fill="#C2C2C2"/>
<circle cx="1447.35" cy="1046.89" r="2.67792" transform="rotate(-27.2553 1447.35 1046.89)" fill="#C2C2C2"/>
<circle cx="294.347" cy="1145.89" r="2.67792" transform="rotate(-27.2553 294.347 1145.89)" fill="#C2C2C2"/>
<circle cx="251.347" cy="1046.89" r="2.67792" transform="rotate(-27.2553 251.347 1046.89)" fill="#C2C2C2"/>
<circle cx="799.607" cy="221.607" r="2.67792" transform="rotate(62.7447 799.607 221.607)" fill="#C2C2C2"/>
<circle cx="898.607" cy="221.607" r="2.67792" transform="rotate(62.7447 898.607 221.607)" fill="#C2C2C2"/>
</svg>
